Coordinates
version=1
nRows=17
nColumns=38
inDegrees=no

Units are S.I. units (second, meters, Newtons, ...)
If the header above contains a line with 'inDegrees', this indicates whether rotational values are in degrees (yes) or radians (no).

endheader
time	pelvis_tilt	pelvis_list	pelvis_rotation	pelvis_tx	pelvis_ty	pelvis_tz	hip_flexion_r	hip_adduction_r	hip_rotation_r	knee_angle_r	ankle_angle_r	subtalar_angle_r	mtp_angle_r	hip_flexion_l	hip_adduction_l	hip_rotation_l	knee_angle_l	ankle_angle_l	subtalar_angle_l	mtp_angle_l	lumbar_extension	lumbar_bending	lumbar_rotation	arm_flex_r	arm_add_r	arm_rot_r	elbow_flex_r	pro_sup_r	wrist_flex_r	wrist_dev_r	arm_flex_l	arm_add_l	arm_rot_l	elbow_flex_l	pro_sup_l	wrist_flex_l	wrist_dev_l
3.83	-1.94437	1.55978	-2.71412	0.653624	0.719058	1.0332	0.374931	-0.0574219	0.0219442	1.1927	-0.195345	0	0	-0.0801043	0.0442628	-0.155756	0.143276	-0.345806	0	0	-0.202304	-0.0489609	-0.063323	0.872758	-0.427357	0.848211	1.1669	1.5708	0	0	0.795224	-0.292892	0.79511	1.15914	1.5708	0	0
3.84	-2.1026	1.56257	-2.5562	0.653047	0.725328	1.03319	0.390192	-0.056874	0.0174017	1.17091	-0.184602	0	0	-0.0917679	0.0418037	-0.154276	0.133062	-0.346609	0	0	-0.20283	-0.0449866	-0.0641116	0.874848	-0.427665	0.84985	1.16649	1.5708	0	0	0.793015	-0.291647	0.790289	1.16058	1.5708	0	0
3.85	-2.34517	1.56524	-2.31403	0.65248	0.731638	1.03308	0.404977	-0.0565116	0.012822	1.14727	-0.173937	0	0	-0.103159	0.0394787	-0.152863	0.122695	-0.347553	0	0	-0.20174	-0.0404207	-0.0639537	0.876943	-0.428508	0.852956	1.16519	1.5708	0	0	0.792087	-0.290051	0.789018	1.15951	1.5708	0	0
3.86	-2.83639	1.56718	-1.82317	0.651909	0.737986	1.0329	0.418694	-0.0562715	0.00865571	1.12127	-0.164651	0	0	-0.114399	0.0373943	-0.151926	0.112552	-0.348573	0	0	-0.199461	-0.0351848	-0.0633623	0.879118	-0.429547	0.857453	1.1632	1.5708	0	0	0.791593	-0.288095	0.78973	1.15647	1.5708	0	0
3.87	2.66471	1.56742	-1.04146	0.651368	0.744387	1.03265	0.431344	-0.0559477	0.00429266	1.09335	-0.157048	0	0	-0.125778	0.0355441	-0.151396	0.102376	-0.349625	0	0	-0.19799	-0.030632	-0.06343	0.880961	-0.430417	0.860793	1.16255	1.5708	0	0	0.789356	-0.286686	0.787089	1.15615	1.5708	0	0
3.88	2.13129	1.56606	-0.508425	0.650855	0.75081	1.03231	0.443325	-0.0559164	-0.000928075	1.06412	-0.151805	0	0	-0.137238	0.0338672	-0.151004	0.0922087	-0.350872	0	0	-0.197315	-0.0268728	-0.0639468	0.882657	-0.431447	0.863153	1.16327	1.5708	0	0	0.78602	-0.285711	0.781941	1.15827	1.5708	0	0
3.89	1.85165	1.56423	-0.228993	0.650317	0.757284	1.03188	0.454734	-0.0562696	-0.00712467	1.03352	-0.148918	0	0	-0.148533	0.0324162	-0.149901	0.0820798	-0.352237	0	0	-0.195681	-0.0227539	-0.0644066	0.884545	-0.432707	0.866499	1.16365	1.5708	0	0	0.783289	-0.284633	0.778415	1.15933	1.5708	0	0
3.9	1.67396	1.56226	-0.0512329	0.649774	0.76381	1.03135	0.465392	-0.0566301	-0.013642	1.00173	-0.147557	0	0	-0.159507	0.0310877	-0.148153	0.0719816	-0.353157	0	0	-0.193729	-0.0189121	-0.0651419	0.886362	-0.434064	0.869816	1.16435	1.5708	0	0	0.780443	-0.283684	0.774712	1.16068	1.5708	0	0
3.91	1.56897	1.56028	0.0541235	0.649251	0.770399	1.03073	0.475122	-0.0570172	-0.0210557	0.969329	-0.147472	0	0	-0.170538	0.0297839	-0.145979	0.0618657	-0.353725	0	0	-0.190429	-0.0146696	-0.0651938	0.887759	-0.435691	0.873605	1.16403	1.5708	0	0	0.778844	-0.281862	0.773889	1.15909	1.5708	0	0
3.92	1.51523	1.55818	0.108336	0.648721	0.777031	1.03006	0.483912	-0.0572549	-0.0296315	0.936761	-0.148698	0	0	-0.181624	0.0283048	-0.143705	0.0522052	-0.354093	0	0	-0.188041	-0.0105182	-0.0659117	0.889121	-0.437015	0.876384	1.16471	1.5708	0	0	0.775989	-0.280267	0.77	1.15949	1.5708	0	0
3.93	1.47745	1.55615	0.146667	0.648229	0.783712	1.02931	0.491847	-0.0577833	-0.0386024	0.904204	-0.150923	0	0	-0.192506	0.0267856	-0.141178	0.0432344	-0.354439	0	0	-0.186489	-0.00703896	-0.0671259	0.89023	-0.438213	0.877951	1.16672	1.5708	0	0	0.772017	-0.279185	0.763476	1.16237	1.5708	0	0
3.94	1.40521	1.55416	0.219458	0.647764	0.790489	1.02843	0.499683	-0.0586976	-0.0481907	0.871609	-0.153484	0	0	-0.202716	0.0254134	-0.138098	0.0344097	-0.354648	0	0	-0.183258	-0.00329233	-0.0676074	0.890766	-0.439851	0.879712	1.16865	1.5708	0	0	0.768707	-0.277834	0.759076	1.16369	1.5708	0	0
3.95	1.32241	1.55192	0.302844	0.647301	0.797317	1.02742	0.507228	-0.0596102	-0.0585765	0.83903	-0.155361	0	0	-0.212549	0.0239613	-0.134394	0.0252604	-0.354682	0	0	-0.178646	0.00114525	-0.0675839	0.890999	-0.441927	0.881998	1.17059	1.5708	0	0	0.765987	-0.276347	0.756655	1.16379	1.5708	0	0
3.96	1.25694	1.54949	0.368607	0.646855	0.804179	1.02636	0.513801	-0.0599417	-0.069107	0.806003	-0.156272	0	0	-0.22212	0.0224334	-0.131386	0.0167825	-0.354447	0	0	-0.174071	0.00582119	-0.0675429	0.89148	-0.444085	0.884955	1.17301	1.5708	0	0	0.762575	-0.2751	0.753313	1.16468	1.5708	0	0
3.97	1.1818	1.54691	0.443985	0.646461	0.811088	1.02523	0.520442	-0.060591	-0.0796352	0.773413	-0.156647	0	0	-0.230882	0.0210575	-0.128964	0.00899178	-0.353704	0	0	-0.169843	0.00932511	-0.0680585	0.891471	-0.446195	0.88691	1.177	1.5708	0	0	0.757483	-0.274394	0.747053	1.16837	1.5708	0	0
3.98	1.10391	1.5441	0.521948	0.646121	0.818024	1.02402	0.52781	-0.062207	-0.0899171	0.742392	-0.157037	0	0	-0.238706	0.019795	-0.127181	0.00223846	-0.352281	0	0	-0.164738	0.0127922	-0.0679526	0.890815	-0.44869	0.88831	1.18152	1.5708	0	0	0.752858	-0.273649	0.742296	1.17137	1.5708	0	0
3.99	1.04865	1.54118	0.577356	0.645851	0.824986	1.02279	0.534144	-0.0630742	-0.101262	0.712579	-0.155716	0	0	-0.245794	0.0181588	-0.126953	0	-0.350474	0	0	-0.158826	0.0168599	-0.0671948	0.889775	-0.451122	0.889561	1.1852	1.5708	0	0	0.749128	-0.272523	0.739383	1.17232	1.5708	0	0
